<svg id="Layer_1" data-name="Layer 1" xmlns="http://www.w3.org/2000/svg" viewBox="0 0 126.42 126.42"><defs><style>.cls-1{fill:#135374;}.cls-2{fill:#f6f5f5;}</style></defs><rect class="cls-1" width="126.42" height="126.42" rx="15.93"/><path class="cls-2" d="M281.57,237.72H275v18.82h-5.2V237.72h-6.54V233.5h18.32Z" transform="translate(-238.12 -216.18)"/><path class="cls-2" d="M294.19,256.54h-2.8v-5.05h-5.14v5.05h-2.8V244.13h2.8v5h5.14v-5h2.8Z" transform="translate(-238.12 -216.18)"/><path class="cls-2" d="M304.47,256.54H297V244.13h7.15v2.28h-4.36v2.76h4.06v2.27h-4.06v2.83h4.65Z" transform="translate(-238.12 -216.18)"/><path class="cls-2" d="M263.25,289.31V268.87h7.44a9.36,9.36,0,0,1,5.26,1.25,4.05,4.05,0,0,1,1.83,3.54,4.19,4.19,0,0,1-1.11,2.89,5.94,5.94,0,0,1-2.86,1.73v.05a5.68,5.68,0,0,1,3.48,1.61,4.54,4.54,0,0,1,1.31,3.27,5.45,5.45,0,0,1-2,4.45,8.4,8.4,0,0,1-5.49,1.65Zm4.6-17.05v4.85h2a3.4,3.4,0,0,0,2.25-.69,2.39,2.39,0,0,0,.82-1.91c0-1.5-1.12-2.25-3.37-2.25Zm0,8.27v5.39h2.49a3.83,3.83,0,0,0,2.51-.75,2.46,2.46,0,0,0,.9-2,2.3,2.3,0,0,0-.89-1.92,3.9,3.9,0,0,0-2.49-.7Z" transform="translate(-238.12 -216.18)"/><path class="cls-2" d="M287.43,289.31h-6.55v-11h2.48v9h4.07Z" transform="translate(-238.12 -216.18)"/><path class="cls-2" d="M297.57,284.54q0,5-4.62,5t-4.48-4.84V278.3H291v6.39c0,1.78.69,2.67,2.08,2.67s2-.86,2-2.58V278.3h2.48Z" transform="translate(-238.12 -216.18)"/><path class="cls-2" d="M306.57,289.31H300v-11h6.34v2h-3.86v2.45h3.6v2h-3.6v2.52h4.12Z" transform="translate(-238.12 -216.18)"/><path class="cls-2" d="M280.18,324.23a14.31,14.31,0,0,1-6.21,1.15,10.5,10.5,0,0,1-7.86-2.93,10.74,10.74,0,0,1-2.86-7.83,11.52,11.52,0,0,1,3.21-8.46,11.27,11.27,0,0,1,8.36-3.24,15.51,15.51,0,0,1,5.36.81v4.71a9.51,9.51,0,0,0-5-1.31,6.58,6.58,0,0,0-4.94,1.93,7.14,7.14,0,0,0-1.87,5.21,7,7,0,0,0,1.77,5,6.28,6.28,0,0,0,4.77,1.87,10.18,10.18,0,0,0,5.24-1.4Z" transform="translate(-238.12 -216.18)"/><path class="cls-2" d="M287.76,325.21a5.44,5.44,0,0,1-4.09-1.64,5.85,5.85,0,0,1-1.59-4.26,6.28,6.28,0,0,1,1.61-4.48,5.57,5.57,0,0,1,4.26-1.72,5.32,5.32,0,0,1,4.05,1.64,6.07,6.07,0,0,1,1.54,4.33,6.17,6.17,0,0,1-1.6,4.44A5.49,5.49,0,0,1,287.76,325.21Zm.11-9.83a2.67,2.67,0,0,0-2.2,1,4.37,4.37,0,0,0-.81,2.75,4.27,4.27,0,0,0,.81,2.75,2.82,2.82,0,0,0,4.3,0,4.21,4.21,0,0,0,.8-2.73,4.62,4.62,0,0,0-.77-2.83A2.55,2.55,0,0,0,287.87,315.38Z" transform="translate(-238.12 -216.18)"/><path class="cls-2" d="M302.45,325h-7v-11.7h2.64v9.56h4.33Z" transform="translate(-238.12 -216.18)"/><path class="cls-2" d="M311,325h-7v-11.7h2.64v9.56H311Z" transform="translate(-238.12 -216.18)"/><path class="cls-2" d="M323.21,325h-2.87l-.83-2.61h-4.16l-.82,2.61h-2.86l4.26-11.7h3.12Zm-4.3-4.63-1.26-3.93a5.3,5.3,0,0,1-.2-1.05h-.06a4.63,4.63,0,0,1-.21,1l-1.27,4Z" transform="translate(-238.12 -216.18)"/><path class="cls-2" d="M334.48,325h-3l-1.82-3c-.14-.23-.27-.44-.39-.62a4.91,4.91,0,0,0-.38-.46,1.76,1.76,0,0,0-.4-.29,1,1,0,0,0-.46-.1h-.71V325h-2.63v-11.7h4.18q4.25,0,4.25,3.18a3.39,3.39,0,0,1-.18,1.13,3.26,3.26,0,0,1-.53.93,3.39,3.39,0,0,1-.83.72,4.36,4.36,0,0,1-1.08.47v0a1.6,1.6,0,0,1,.5.26,4.78,4.78,0,0,1,.48.43,5.83,5.83,0,0,1,.43.53,6,6,0,0,1,.38.55Zm-7.18-9.73v3.26h1.15a1.92,1.92,0,0,0,1.36-.49,1.62,1.62,0,0,0,.52-1.23c0-1-.61-1.54-1.83-1.54Z" transform="translate(-238.12 -216.18)"/><polygon class="cls-2" points="11.85 6.67 8.63 6.67 6.35 8.95 6.35 12.16 8.63 14.44 11.85 14.44 14.12 12.16 14.12 8.95 11.85 6.67"/><polygon class="cls-2" points="118.17 6.67 114.95 6.67 112.68 8.95 112.68 12.16 114.95 14.44 118.17 14.44 120.45 12.16 120.45 8.95 118.17 6.67"/><polygon class="cls-2" points="118.17 109.99 114.95 109.99 112.68 112.27 112.68 115.48 114.95 117.76 118.17 117.76 120.45 115.48 120.45 112.27 118.17 109.99"/><polygon class="cls-2" points="11.85 109.99 8.63 109.99 6.35 112.27 6.35 115.48 8.63 117.76 11.85 117.76 14.12 115.48 14.12 112.27 11.85 109.99"/></svg>